<svg width="29" height="29" viewBox="0 0 29 29" fill="none" xmlns="http://www.w3.org/2000/svg">
<path d="M1.8125 18.8046L1.8125 25.828C1.8125 26.5813 2.41855 27.1874 3.17187 27.1874L10.1953 27.1874C10.5691 27.1874 10.875 26.8815 10.875 26.5077L10.875 24.2421C10.875 23.8682 10.5691 23.5624 10.1953 23.5624L5.43749 23.5624L5.43749 18.8046C5.43749 18.4308 5.13163 18.1249 4.75781 18.1249L2.49219 18.1249C2.11836 18.1249 1.8125 18.4308 1.8125 18.8046ZM18.125 26.5077L18.125 24.2421C18.125 23.8683 18.4308 23.5624 18.8046 23.5624L23.5624 23.5624L23.5624 18.8046C23.5624 18.4308 23.8683 18.1249 24.2421 18.1249L26.5077 18.1249C26.8816 18.1249 27.1874 18.4308 27.1874 18.8046L27.1874 25.828C27.1874 26.5813 26.5814 27.1874 25.8281 27.1874L18.8046 27.1874C18.4308 27.1874 18.125 26.8815 18.125 26.5077ZM26.5077 12.2896L24.2421 12.2896C23.8683 12.2896 23.5624 11.9837 23.5624 11.6099L23.5624 5.43745L17.39 5.43745C17.0162 5.43745 16.7103 5.13159 16.7103 4.75776L16.7103 2.49214C16.7103 2.11832 17.0162 1.81246 17.39 1.81246L25.8281 1.81246C26.5814 1.81246 27.1874 2.41851 27.1874 3.17183L27.1874 11.6099C27.1874 11.9837 26.8816 12.2896 26.5077 12.2896ZM10.875 2.49214L10.875 4.75776C10.875 5.13159 10.5691 5.43745 10.1953 5.43745L5.43749 5.43745L5.43749 10.1952C5.43749 10.5691 5.13163 10.8749 4.75781 10.8749L2.49219 10.8749C2.11836 10.8749 1.8125 10.5691 1.8125 10.1952L1.8125 3.17183C1.8125 2.41851 2.41856 1.81246 3.17188 1.81246L10.1953 1.81246C10.5691 1.81246 10.875 2.11832 10.875 2.49214Z" fill="white"/>
<path d="M10.1953 27.1874C10.5691 27.1874 10.875 26.8815 10.875 26.5077L10.875 24.2421C10.875 23.8682 10.5691 23.5624 10.1953 23.5624L18.8046 23.5624C18.4308 23.5624 18.125 23.8683 18.125 24.2421L18.125 26.5077C18.125 26.8815 18.4308 27.1874 18.8046 27.1874L10.1953 27.1874Z" fill="white"/>
<path d="M5.43749 18.8046C5.43749 18.4308 5.13163 18.1249 4.75781 18.1249L2.49219 18.1249C2.11836 18.1249 1.8125 18.4308 1.8125 18.8046L1.8125 10.1952C1.8125 10.5691 2.11836 10.8749 2.49219 10.8749L4.75781 10.8749C5.13163 10.8749 5.43749 10.5691 5.43749 10.1952L5.43749 18.8046Z" fill="white"/>
<line x1="2.26341" y1="-2.26341" x2="20.2434" y2="-2.26341" transform="matrix(-0.703957 0.710242 0.710242 0.703957 27.1609 4.80969)" stroke="white" stroke-width="4.52681" stroke-linecap="round"/>
</svg>
