<svg width="694" height="430" viewBox="0 0 694 430" fill="none" xmlns="http://www.w3.org/2000/svg">
<path d="M346.08 174.963C336.818 174.963 327.934 171.283 321.384 164.733C314.835 158.183 311.155 149.3 311.155 140.037C311.155 130.774 314.835 121.891 321.384 115.341C327.934 108.791 336.818 105.112 346.08 105.112C346.248 105.112 346.413 105.122 346.579 105.124V64.1157L346.227 63.7629L345.865 64.1246C339.293 57.6286 331.464 52.5433 322.858 49.1806C314.251 45.8179 305.048 44.2485 295.814 44.5688C286.579 44.8891 277.507 47.0923 269.154 51.0433C260.801 54.9943 253.343 60.6098 247.238 67.5455C241.132 74.4812 236.508 82.591 233.648 91.3775C230.788 100.164 229.753 109.442 230.606 118.643C231.459 127.844 234.183 136.773 238.61 144.884C243.036 152.995 249.073 160.116 256.35 165.81L339.718 249.179C340.254 249.714 340.936 250.079 341.678 250.228C342.421 250.376 343.191 250.302 343.891 250.013C344.591 249.725 345.191 249.236 345.613 248.608C346.036 247.98 346.264 247.24 346.267 246.483L346.579 174.95C346.413 174.952 346.248 174.963 346.08 174.963Z" fill="#0B6623"/>
<path d="M448.417 69.9758C446.705 67.7886 444.861 65.7087 442.894 63.7479C436.593 57.4469 429.113 52.4487 420.881 49.0387C412.648 45.6286 403.824 43.8735 394.913 43.8734C386.003 43.8734 377.179 45.6285 368.946 49.0386C360.714 52.4486 353.233 57.4468 346.933 63.7477C346.814 63.866 346.706 63.9906 346.589 64.1096L346.58 64.1007V105.109C346.413 105.107 346.248 105.097 346.081 105.097C344.577 105.1 343.076 105.199 341.585 105.394C341.041 103.201 339.99 101.165 338.518 99.4507C337.046 97.736 335.193 96.3898 333.107 95.5197C331.021 94.6497 328.76 94.2801 326.506 94.4404C324.252 94.6007 322.066 95.2865 320.125 96.443C318.183 97.5994 316.539 99.1944 315.324 101.1C314.109 103.006 313.358 105.17 313.129 107.418C312.9 109.666 313.201 111.937 314.008 114.048C314.814 116.16 316.104 118.053 317.773 119.576C316.938 120.729 316.173 121.931 315.484 123.176C313.508 122.839 311.483 122.916 309.538 123.402C307.593 123.888 305.77 124.773 304.184 126C302.599 127.227 301.285 128.77 300.327 130.532C299.369 132.293 298.787 134.234 298.619 136.232C298.45 138.23 298.698 140.241 299.347 142.138C299.996 144.035 301.031 145.777 302.388 147.253C303.746 148.729 305.394 149.907 307.23 150.712C309.066 151.518 311.05 151.933 313.055 151.932C313.117 151.932 313.176 151.924 313.238 151.923C314.241 154.686 315.59 157.312 317.253 159.736C316.098 161.358 315.291 163.202 314.881 165.15C314.471 167.099 314.467 169.111 314.871 171.061C315.274 173.011 316.075 174.857 317.224 176.483C318.373 178.11 319.845 179.482 321.548 180.513C323.251 181.545 325.149 182.214 327.122 182.479C329.096 182.744 331.103 182.599 333.018 182.053C334.933 181.507 336.715 180.572 338.252 179.306C339.789 178.04 341.048 176.471 341.952 174.696C343.322 174.861 344.701 174.945 346.081 174.948C346.248 174.948 346.413 174.937 346.58 174.935V246.058C346.58 246.817 346.805 247.559 347.226 248.189C347.648 248.82 348.247 249.312 348.948 249.602C349.649 249.892 350.42 249.968 351.164 249.82C351.908 249.672 352.592 249.307 353.128 248.771L436.809 165.09C450.961 154.016 460.135 137.774 462.311 119.937C464.488 102.1 459.49 84.128 448.417 69.9758Z" fill="#F2F2F2"/>
<path d="M578.295 411.33L568.456 411.179L564.357 373.163L578.877 373.386L578.295 411.33Z" fill="#A0616A"/>
<path d="M583.173 427.7L583.106 426.773L582.796 422.147L581.609 404.646L578.402 404.404L567.633 403.593L565.904 403.458L565.807 410.199L550.701 420.283C550.063 420.711 549.554 421.306 549.23 422.003C548.906 422.7 548.778 423.473 548.862 424.237C548.945 425.001 549.237 425.728 549.704 426.339C550.171 426.949 550.797 427.42 551.513 427.7C551.977 427.885 552.471 427.984 552.971 427.99L571.689 428.28L571.979 427.7L575.012 421.664L576.055 427.7L576.171 428.348L583.221 428.454L583.173 427.7Z" fill="#2F2E41"/>
<path d="M598.382 398.783L590.626 404.834L563.592 377.794L575.04 368.862L598.382 398.783Z" fill="#A0616A"/>
<path d="M612.96 409.031L596.772 391.491L594.116 393.316L585.23 399.44L583.801 400.425L587.944 405.737L582.796 422.147L582.507 423.064C582.311 423.686 582.264 424.346 582.368 424.989C582.472 425.633 582.724 426.244 583.106 426.773C583.134 426.821 583.173 426.86 583.202 426.908C583.437 427.213 583.717 427.48 584.033 427.7C584.758 428.234 585.634 428.522 586.534 428.521C587.435 428.525 588.313 428.237 589.036 427.7C589.065 427.681 589.084 427.662 589.113 427.642L603.862 416.129L602.307 408.895L607.397 413.367L612.96 409.031Z" fill="#2F2E41"/>
<path d="M605.968 160.799L593.484 114.591C592.949 112.635 591.667 110.967 589.914 109.948C588.16 108.929 586.077 108.64 584.112 109.144C583.13 109.396 582.206 109.839 581.395 110.448C580.583 111.057 579.899 111.82 579.383 112.693C578.866 113.566 578.526 114.533 578.383 115.537C578.24 116.542 578.296 117.564 578.548 118.547C578.582 118.679 578.619 118.811 578.66 118.941L593.1 166.543L600.655 195.837C599.554 196.677 598.739 197.836 598.32 199.155C597.901 200.475 597.899 201.891 598.313 203.212C598.727 204.533 599.538 205.695 600.635 206.539C601.732 207.383 603.063 207.869 604.446 207.931C605.829 207.992 607.197 207.627 608.365 206.884C609.533 206.141 610.444 205.056 610.974 203.777C611.504 202.498 611.628 201.087 611.328 199.736C611.028 198.384 610.32 197.157 609.299 196.223L605.968 160.799Z" fill="#A0616A"/>
<path d="M515.218 151.428L548.538 117.064C549.945 115.604 550.722 113.649 550.7 111.621C550.679 109.594 549.862 107.656 548.424 106.225C547.705 105.51 546.852 104.943 545.913 104.557C544.975 104.171 543.97 103.974 542.955 103.977C541.941 103.979 540.936 104.182 540 104.572C539.064 104.963 538.214 105.534 537.498 106.254C537.402 106.35 537.308 106.45 537.217 106.552L503.7 143.308L482.392 164.784C481.108 164.268 479.695 164.16 478.347 164.475C476.999 164.79 475.781 165.513 474.857 166.544C473.934 167.576 473.351 168.866 473.187 170.241C473.022 171.616 473.285 173.007 473.94 174.227C474.594 175.447 475.608 176.436 476.844 177.06C478.08 177.683 479.478 177.911 480.848 177.713C482.218 177.514 483.494 176.898 484.502 175.949C485.51 175.001 486.202 173.764 486.483 172.409L515.218 151.428Z" fill="#A0616A"/>
<path d="M539.854 158.449L546.418 187.524L589.203 184.85C584.735 169.845 583.174 166.817 586.532 156.375L539.854 158.449Z" fill="#A0616A"/>
<path d="M572.134 89.9902H554.641L547.129 102.845L543.55 102.648C536.159 102.24 518.355 117.927 518.355 125.329L528.591 138.5L537.504 130.477C537.504 130.477 526.465 136.107 537.827 142.869C537.827 142.869 535.801 155.611 537.827 155.474C539.854 155.337 544.522 152.744 539.854 155.337C535.186 157.931 535.534 158.279 536.138 158.883L536.742 159.486L585.824 167.728C585.824 167.728 587.26 158.213 587.414 156.516C587.569 154.819 586.532 158.968 587.569 154.819C588.606 150.669 590.162 152.225 588.607 150.67C587.051 149.114 591.557 129.837 586.776 122.36L584.746 145.63L601.682 140.282C603.752 130.993 601.873 121.461 597.225 111.759C597.225 104.586 590.053 101.896 582.881 101.896H581.962L572.134 89.9902Z" fill="#E6E6E6"/>
<path d="M590.884 182.134L592.364 198.567C592.364 198.567 608.987 215.061 603.35 236.229C597.713 257.397 587.216 315.062 587.216 315.062C587.216 315.062 592.804 367.21 580.996 389.852L563.242 386.314L552.635 315.567L547.796 235.113L543.977 212.262L546.418 185.742L590.884 182.134Z" fill="#2F2E41"/>
<path d="M555.788 202.877L543.977 212.262L518.451 321.631L575.323 394.186L586.299 384.041L548.201 317.663L557.114 257.942L550.47 229.765L555.788 202.877Z" fill="#2F2E41"/>
<path d="M538.138 65.695C544.121 76.0018 532.855 93.3682 544.209 96.9744L543.274 96.039C536.42 87.6088 550.745 69.7659 543.892 61.3357C542.827 60.0991 541.913 58.7403 541.168 57.288L538.138 65.695Z" fill="#2F2E41"/>
<path d="M584.821 64.1326C584.822 67.4728 584.003 70.7623 582.436 73.7123C580.869 76.6623 578.602 79.1825 575.834 81.0518C573.066 82.921 569.881 84.0822 566.559 84.4333C563.238 84.7844 559.88 84.3148 556.782 83.0655C553.685 81.8163 550.941 79.8257 548.792 77.2685C546.643 74.7113 545.155 71.6656 544.457 68.3989C543.76 65.1322 543.876 61.7443 544.794 58.5327C545.712 55.321 547.404 52.3837 549.722 49.9787L549.82 49.8809C549.983 49.7094 550.146 49.538 550.318 49.3747C550.319 49.3747 550.32 49.3746 550.321 49.3742C550.322 49.3738 550.323 49.3732 550.323 49.3725C550.324 49.3718 550.325 49.3709 550.325 49.3699C550.326 49.369 550.326 49.3679 550.326 49.3669C550.538 49.171 550.75 48.9748 550.971 48.787C553.919 46.2019 557.551 44.5213 561.43 43.9466C565.309 43.3719 569.272 43.9273 572.843 45.5465C576.415 47.1656 579.444 49.7799 581.568 53.0762C583.692 56.3725 584.822 60.2111 584.821 64.1326Z" fill="#2F2E41"/>
<path d="M559.387 85.9654C568.837 85.9654 576.498 78.3043 576.498 68.8539C576.498 59.4034 568.837 51.7423 559.387 51.7423C549.936 51.7423 542.275 59.4034 542.275 68.8539C542.275 78.3043 549.936 85.9654 559.387 85.9654Z" fill="#A0616A"/>
<path d="M571.612 52.4016C568.961 49.9206 565.665 48.2376 562.101 47.5456C558.537 46.8537 554.85 47.181 551.464 48.49C551.377 48.5286 551.281 48.5672 551.194 48.6059C550.856 48.7411 550.518 48.8956 550.18 49.0598L549.986 49.1467V49.1757L549.871 49.2626C549.791 49.3355 549.695 49.3884 549.59 49.4172C548.104 49.3776 546.626 49.6522 545.253 50.223C543.88 50.7939 542.642 51.6482 541.622 52.73C538.976 55.6082 537.72 60.2636 538.107 65.8269L538.116 66.0008L538.271 66.0973C538.319 66.1263 538.358 66.1553 538.406 66.1843C539.758 67.0246 541.043 67.7682 542.289 68.425C543.042 68.8307 543.776 69.1977 544.51 69.5358L544.771 69.6516C545.051 69.7869 545.341 69.9124 545.621 70.038C552.691 73.1287 559.21 73.6116 565.469 71.535L565.585 71.4964L567.69 67.9711L568.357 66.8603C568.502 67.6523 568.589 68.8983 568.685 70.3277C568.794 72.5593 569.042 74.7819 569.429 76.9824V77.0017C569.815 78.9527 570.414 80.5271 571.399 81.0486C571.546 81.1419 571.71 81.2044 571.882 81.2321L573.447 79.1652L577.561 73.7372L577.629 73.4184C579.3 65.8752 576.885 57.4336 571.612 52.4016Z" fill="#2F2E41"/>
<path d="M639.231 82.1594C635.763 86.7568 626.685 94.5319 621.595 97.2169C621.083 97.4874 620.571 97.7385 620.049 97.9703C620.559 96.7537 620.657 95.4039 620.329 94.1262C619.748 92.5959 618.807 91.2278 617.586 90.1373C614.447 86.8437 611.305 83.5534 608.16 80.2663C610.274 83.0664 611.777 86.2788 612.572 89.6959C613.367 93.1131 613.437 96.659 612.776 100.105C610.153 100.496 607.481 100.418 604.885 99.873C599.264 98.656 594.107 94.8506 591.875 89.5481C589.973 85.0666 590.243 79.9766 590.852 75.1473C591.46 70.3181 592.397 65.4309 591.721 60.6114C591.054 55.7821 588.398 50.8853 583.869 49.0888C584.093 49.2719 584.275 49.5009 584.403 49.7604C584.531 50.0198 584.602 50.3037 584.611 50.5929C584.62 50.8821 584.567 51.1699 584.456 51.4369C584.344 51.7039 584.177 51.944 583.965 52.1409C583.28 52.7287 582.393 53.0267 581.493 52.9715C581.211 52.9738 580.93 52.9512 580.652 52.9039C577.05 52.334 574.413 49.3206 572.114 46.481C571.533 46.3994 570.985 46.16 570.53 45.7888C570.076 45.4175 569.732 44.9287 569.535 44.3755C569.318 43.7931 569.318 43.1518 569.535 42.5694C569.761 42.1223 570.094 41.738 570.504 41.4507C570.914 41.1633 571.389 40.9819 571.886 40.9227C572.383 40.8634 572.887 40.928 573.353 41.1109C573.82 41.2937 574.233 41.589 574.558 41.9705C574.219 40.595 574.181 39.1626 574.446 37.7709C574.711 36.3793 575.273 35.0611 576.093 33.9062C576.913 32.7513 577.973 31.7867 579.2 31.0783C580.427 30.3699 581.792 29.9342 583.202 29.8009C587.365 29.4049 593.981 28.7771 596.734 31.9354C601.031 36.8805 607.628 41.8353 608.324 48.3548C609.009 54.8646 612.612 53.5703 614.119 59.9449C615.625 66.3292 621.817 68.5313 627.641 71.5351C634.15 74.8962 633.252 86.4091 639.231 82.1594Z" fill="#2F2E41"/>
<path d="M567.561 67.7479C573.544 78.0547 562.278 95.4211 573.632 99.0273L572.697 98.0919C565.843 89.6617 580.168 71.8188 573.314 63.3886C572.249 62.152 571.335 60.7932 570.591 59.3409L567.561 67.7479Z" fill="#2F2E41"/>
<path d="M576.83 73.2581C574.863 67.329 571.338 62.0382 566.623 57.9408C561.908 53.8434 556.177 51.0903 550.032 49.9704C550.008 49.9624 549.926 49.9297 549.82 49.8807C549.755 49.8399 549.673 49.799 549.591 49.7583C549.836 49.6195 550.073 49.4971 550.318 49.3746C550.319 49.3746 550.32 49.3744 550.321 49.374C550.322 49.3737 550.323 49.3731 550.323 49.3724C550.324 49.3716 550.325 49.3708 550.325 49.3698C550.326 49.3688 550.326 49.3678 550.326 49.3667C550.538 49.1708 550.75 48.9746 550.971 48.7869L551.591 48.8114C551.591 48.8114 573.393 45.3587 576.83 73.2581Z" fill="#FD6584"/>
<path d="M235.785 117.718C235.558 119.333 234.71 120.795 233.422 121.794C232.133 122.793 230.506 123.25 228.886 123.068C228.557 123.025 228.232 122.956 227.915 122.86L200.737 155.796L192.044 144.205L224.088 114.837C224.587 113.552 225.498 112.469 226.678 111.756C227.858 111.043 229.24 110.741 230.61 110.897C231.388 110.993 232.14 111.241 232.823 111.628C233.505 112.014 234.105 112.532 234.588 113.15C235.07 113.768 235.426 114.476 235.636 115.232C235.845 115.988 235.903 116.777 235.807 117.556C235.8 117.61 235.793 117.664 235.785 117.718Z" fill="#A0616A"/>
<path d="M155.371 111.28C155.371 111.28 173.509 109.221 177.373 117.914C181.236 126.607 190.972 144.707 190.972 144.707C190.972 144.707 185.979 146.834 191.078 141.308C193.363 138.831 189.147 140.342 192.044 139.376C194.942 138.41 195.907 139.376 195.907 139.376L205.566 155.795C205.566 155.795 204.789 159.537 199.771 159.659C194.753 159.781 202.668 154.83 195.907 161.591C192.417 165.082 190.05 163.754 190.05 163.754L147.34 140.12L155.371 111.28Z" fill="#3F3D56"/>
<path d="M72.4974 241.011C73.6566 239.865 74.3225 238.311 74.3537 236.681C74.3848 235.051 73.7787 233.473 72.6642 232.283C72.4338 232.045 72.1842 231.826 71.9177 231.629L84.8351 184.771L69.3815 178.01L63.1979 233.354C62.4661 234.522 62.1416 235.9 62.275 237.272C62.4084 238.644 62.9922 239.933 63.9353 240.938C64.4775 241.505 65.126 241.96 65.8438 242.276C66.5617 242.592 67.3347 242.764 68.1189 242.781C68.9031 242.799 69.6831 242.661 70.4143 242.377C71.1455 242.094 71.8136 241.668 72.3805 241.126C72.42 241.088 72.459 241.05 72.4974 241.011Z" fill="#A0616A"/>
<path d="M107.705 106.115C107.705 106.115 99.9271 94.719 86.6334 109.524C73.3397 124.329 69.1949 162.94 69.8185 165.366C70.4421 167.792 73.9478 166.4 69.7804 170.476C65.6129 174.553 62.7154 171.655 65.6129 174.553C68.5104 177.45 67.576 181.788 62.6206 182.839C57.6652 183.89 83.9234 188.066 83.9234 188.066C83.9234 188.066 86.7323 187.04 86.8509 180.272C86.9176 176.471 84.9859 174.539 87.8834 173.573C90.781 172.608 87.2179 166.158 87.5226 165.043C87.8274 163.928 100.383 143.646 100.383 143.646L107.705 106.115Z" fill="#3F3D56"/>
<path d="M282.661 385.552C283.065 382.778 280.158 380.058 276.169 379.477C272.18 378.897 268.62 380.676 268.216 383.451C267.812 386.226 270.718 388.946 274.707 389.526C278.696 390.106 282.257 388.327 282.661 385.552Z" fill="#F2F2F2"/>
<path d="M330.153 380.918C330.557 378.143 327.65 375.423 323.661 374.843C319.672 374.263 316.112 376.042 315.708 378.817C315.304 381.591 318.21 384.311 322.199 384.892C326.188 385.472 329.749 383.693 330.153 380.918Z" fill="#F2F2F2"/>
<path d="M269.656 347.104C270.06 344.329 267.153 341.609 263.165 341.029C259.176 340.448 255.615 342.227 255.211 345.002C254.807 347.777 257.714 350.497 261.702 351.077C265.691 351.658 269.252 349.879 269.656 347.104Z" fill="#F2F2F2"/>
<path d="M249.019 331.355C249.039 328.807 247.618 326.731 245.845 326.718C244.073 326.704 242.621 328.759 242.602 331.306C242.583 333.854 244.004 335.93 245.776 335.943C247.548 335.956 249 333.902 249.019 331.355Z" fill="#F2F2F2"/>
<path d="M242.021 302.02C242.041 299.473 240.62 297.397 238.847 297.384C237.075 297.37 235.623 299.424 235.604 301.972C235.585 304.519 237.006 306.595 238.778 306.609C240.55 306.622 242.002 304.568 242.021 302.02Z" fill="#F2F2F2"/>
<path d="M296.442 353.647C296.461 351.099 295.04 349.023 293.268 349.01C291.496 348.996 290.044 351.051 290.024 353.598C290.005 356.146 291.426 358.222 293.198 358.235C294.97 358.248 296.423 356.194 296.442 353.647Z" fill="#F2F2F2"/>
<path d="M273.492 365.106C273.511 362.558 272.09 360.482 270.318 360.469C268.546 360.455 267.093 362.51 267.074 365.057C267.055 367.604 268.476 369.68 270.248 369.694C272.02 369.707 273.472 367.653 273.492 365.106Z" fill="#F2F2F2"/>
<path d="M305.439 386.284C305.458 383.737 304.037 381.661 302.265 381.648C300.493 381.634 299.041 383.688 299.022 386.236C299.002 388.783 300.423 390.859 302.196 390.873C303.968 390.886 305.42 388.832 305.439 386.284Z" fill="#F2F2F2"/>
<path d="M468.103 45.5746C468.507 42.7997 465.6 40.0797 461.612 39.4994C457.623 38.919 454.062 40.698 453.658 43.4729C453.254 46.2478 456.161 48.9678 460.15 49.5481C464.138 50.1285 467.699 48.3495 468.103 45.5746Z" fill="#F2F2F2"/>
<path d="M515.596 40.9404C515.999 38.1656 513.093 35.4456 509.104 34.8652C505.115 34.2849 501.554 36.0639 501.15 38.8387C500.747 41.6136 503.653 44.3335 507.642 44.9139C511.631 45.4943 515.192 43.7153 515.596 40.9404Z" fill="#F2F2F2"/>
<path d="M455.099 7.12609C455.502 4.35119 452.596 1.63121 448.607 1.05084C444.618 0.470468 441.057 2.24948 440.654 5.02438C440.25 7.79927 443.156 10.5193 447.145 11.0996C451.134 11.68 454.695 9.90098 455.099 7.12609Z" fill="#F2F2F2"/>
<path d="M481.884 13.669C481.904 11.1215 480.483 9.04552 478.711 9.03212C476.938 9.01872 475.486 11.073 475.467 13.6204C475.448 16.1679 476.869 18.2439 478.641 18.2573C480.413 18.2707 481.865 16.2164 481.884 13.669Z" fill="#F2F2F2"/>
<path d="M458.934 25.1277C458.953 22.5803 457.532 20.5043 455.76 20.4909C453.988 20.4775 452.536 22.5317 452.517 25.0792C452.497 27.6267 453.918 29.7026 455.69 29.716C457.463 29.7294 458.915 27.6752 458.934 25.1277Z" fill="#F2F2F2"/>
<path d="M490.882 46.3066C490.901 43.7591 489.48 41.6831 487.708 41.6697C485.936 41.6563 484.483 43.7106 484.464 46.258C484.445 48.8055 485.866 50.8815 487.638 50.8949C489.41 50.9083 490.862 48.854 490.882 46.3066Z" fill="#F2F2F2"/>
<path d="M126.197 418.642L135.76 418.641L140.309 381.755L126.196 381.756L126.197 418.642Z" fill="#A0616A"/>
<path d="M125.86 428.618L155.268 428.616V428.245C155.267 425.209 154.061 422.298 151.915 420.151C149.768 418.005 146.857 416.799 143.821 416.799L138.449 412.724L128.427 416.799L125.86 416.799L125.86 428.618Z" fill="#2F2E41"/>
<path d="M84.6661 418.642L94.229 418.641L98.7781 381.755L84.6642 381.756L84.6661 418.642Z" fill="#A0616A"/>
<path d="M84.3292 428.618L113.736 428.616V428.245C113.736 425.209 112.53 422.298 110.384 420.151C108.237 418.005 105.326 416.799 102.29 416.799L96.918 412.724L86.8958 416.799L84.3287 416.799L84.3292 428.618Z" fill="#2F2E41"/>
<path d="M154.527 218.444C154.527 218.444 165.412 233.62 157.555 259.837C149.698 286.054 159.904 309.493 157.698 314.193C155.493 318.892 151.053 323.356 154.722 326.919C158.39 330.483 160.322 333.38 157.424 334.346C154.527 335.312 139.073 402.921 139.073 402.921L122.654 403.887C122.654 403.887 116.706 372.481 123.06 347.135C123.06 347.135 121.665 328.736 124.574 323.331C127.483 317.927 126.913 322.801 126.715 316.018C126.606 311.112 125.89 306.238 124.586 301.507C123.62 297.644 123.06 258.706 123.06 258.706L113.305 310.667C112.664 312.447 112.423 314.347 112.6 316.231C112.996 318.892 112.999 322.87 112.514 324.262C112.03 325.653 111.49 325.946 111.76 328.697C112.03 331.448 100.44 400.547 100.44 400.547H82.0884L73.3958 327.585C74.9596 325.852 76.2612 323.9 77.2592 321.79C79.1909 317.927 79.2661 317.714 78.2627 314.923C77.2592 312.132 77.2592 306.694 77.2592 305.066C77.2592 303.439 76.2558 229.555 88.8305 218.687C101.405 207.82 154.527 218.444 154.527 218.444Z" fill="#2F2E41"/>
<path d="M98.1732 102.46L116.506 97.7099L125.063 85.9073L145.386 88.4056L149.712 104.504L164.18 112.903C164.18 112.903 156.183 197.483 158.085 202.127C159.987 206.772 155.372 210.657 149.547 216.644C143.722 222.631 154.387 215.95 155.738 222.468C157.09 228.986 166.943 235.884 155.738 235.816C144.534 235.747 82.9035 238.858 84.8352 231.131C86.7669 223.405 80.7576 221.29 83.6704 216.445C86.5832 211.601 88.5435 214.308 87.5633 207.159C86.5831 200.011 87.549 195.182 87.549 191.318C87.549 187.455 90.7851 152.348 90.7851 152.348L98.1732 102.46Z" fill="#E6E6E6"/>
<path d="M138.275 83.8872C150.573 83.8872 160.543 73.9174 160.543 61.619C160.543 49.3206 150.573 39.3507 138.275 39.3507C125.976 39.3507 116.006 49.3206 116.006 61.619C116.006 73.9174 125.976 83.8872 138.275 83.8872Z" fill="#A0616A"/>
<path d="M123.62 78.9204C128.884 74.8059 121.688 56.706 130.381 60.5694C130.381 60.5694 141.005 53.8084 143.139 58.2513C145.611 63.3958 154.401 61.0619 159.8 59.2461C159.376 58.2598 159.074 57.225 158.902 56.1651C159.899 56.9504 160.955 57.6575 162.06 58.2803C162.802 57.8841 163.458 57.3458 163.992 56.6963C164.519 56.0931 164.848 55.3432 164.936 54.5473C165.024 53.7513 164.867 52.9475 164.485 52.2438C163.586 50.8626 161.732 50.4376 160.641 49.211C160.515 49.0385 160.432 48.838 160.401 48.6267C160.369 48.4153 160.389 48.1995 160.459 47.9977C160.589 47.5042 160.609 46.988 160.517 46.4861C160.425 45.9841 160.223 45.5086 159.926 45.0935C159.629 44.6785 159.244 44.334 158.799 44.0846C158.353 43.8353 157.859 43.6873 157.349 43.651C157.145 43.6573 156.942 43.613 156.758 43.5222C155.842 42.9614 154.995 42.2935 154.237 41.5326C155.506 41.5939 156.779 41.5583 158.042 41.4263C158.303 41.3973 158.564 41.3683 158.825 41.3297C158.342 40.1963 157.62 39.1806 156.708 38.3521C155.796 37.5236 154.716 36.9019 153.542 36.5295C151.062 35.78 148.482 35.4183 145.892 35.4574C144.395 35.4091 142.898 35.3608 141.411 35.3125C138.256 35.088 135.086 35.1981 131.955 35.6409C128.61 36.2512 125.441 37.5926 122.674 39.5695C119.908 41.5463 117.612 44.1097 115.951 47.0765C112.677 53.0164 109.132 72.1595 123.62 78.9204Z" fill="#2F2E41"/>
<path d="M164.035 235.961C167.531 242.2 147.837 244.035 126.502 243.195C126.089 241.615 125.406 240.118 124.483 238.771C122.126 235.352 124.976 212.22 121.537 209.883C123.092 213.65 116.805 238.684 115.491 242.538C96.1935 240.993 78.6055 237.487 78.8179 233.314C78.8759 232.097 82.9035 208.917 84.8545 207.159C86.7958 205.401 84.8352 172.215 84.8545 165.097C84.8641 157.969 95.4595 105.572 95.4595 103.64C95.4595 101.708 120.571 92.0497 120.571 92.0497L131.196 152.898L147.345 95.6813C148.924 97.8282 150.749 99.7829 152.782 101.505C156.018 104.2 168.864 115.23 168.864 115.23L157.863 196.632C157.863 196.632 163.069 208.917 162.798 213.795C162.694 217.665 161.933 221.489 160.548 225.105C158.983 229.692 159.147 227.23 164.035 235.961Z" fill="#3F3D56"/>
<path d="M346.579 151.932C354.581 151.932 361.067 145.446 361.067 137.444C361.067 129.443 354.581 122.957 346.579 122.957C338.578 122.957 332.092 129.443 332.092 137.444C332.092 145.446 338.578 151.932 346.579 151.932Z" fill="white"/>
<g clip-path="url(#clip0_3_231)">
<path d="M348.839 136.665L344.56 135.413C344.065 135.271 343.721 134.807 343.721 134.292C343.721 133.646 344.244 133.123 344.889 133.123H347.516C347.999 133.123 348.474 133.27 348.871 133.539C349.112 133.702 349.437 133.662 349.643 133.46L351.022 132.113C351.303 131.84 351.263 131.384 350.95 131.143C349.98 130.382 348.768 129.958 347.524 129.954V128.053C347.524 127.704 347.238 127.419 346.89 127.419H345.622C345.273 127.419 344.988 127.704 344.988 128.053V129.954H344.889C342.366 129.954 340.337 132.121 340.571 134.692C340.738 136.518 342.132 138.004 343.891 138.519L347.951 139.707C348.447 139.854 348.791 140.313 348.791 140.828C348.791 141.474 348.268 141.997 347.623 141.997H344.996C344.513 141.997 344.038 141.851 343.641 141.581C343.4 141.419 343.075 141.458 342.869 141.66L341.49 143.007C341.209 143.281 341.249 143.736 341.562 143.978C342.532 144.738 343.744 145.162 344.988 145.166V147.068C344.988 147.416 345.273 147.702 345.622 147.702H346.89C347.238 147.702 347.524 147.416 347.524 147.068V145.158C349.37 145.123 351.101 144.025 351.711 142.278C352.563 139.838 351.133 137.334 348.839 136.665Z" fill="#0B6623"/>
</g>
<path d="M586.177 179.922C584.466 177.734 582.621 175.655 580.655 173.694C574.354 167.393 566.874 162.395 558.641 158.984C550.408 155.574 541.585 153.819 532.674 153.819C523.763 153.819 514.939 155.574 506.707 158.984C498.474 162.394 490.994 167.393 484.693 173.694C484.575 173.812 484.466 173.936 484.349 174.055L484.34 174.047V215.055C484.173 215.053 484.008 215.042 483.841 215.042C482.338 215.046 480.836 215.145 479.346 215.34C478.801 213.147 477.751 211.111 476.278 209.397C474.806 207.682 472.953 206.336 470.867 205.466C468.781 204.596 466.521 204.226 464.267 204.386C462.012 204.547 459.827 205.232 457.885 206.389C455.943 207.545 454.299 209.14 453.085 211.046C451.87 212.952 451.118 215.116 450.889 217.364C450.661 219.612 450.962 221.883 451.768 223.994C452.575 226.106 453.864 227.999 455.534 229.522C454.698 230.674 453.934 231.877 453.245 233.122C451.268 232.785 449.243 232.862 447.298 233.348C445.353 233.834 443.53 234.719 441.945 235.946C440.359 237.173 439.046 238.716 438.088 240.478C437.13 242.239 436.548 244.18 436.379 246.178C436.21 248.176 436.458 250.187 437.107 252.084C437.756 253.981 438.792 255.723 440.149 257.199C441.506 258.674 443.155 259.853 444.991 260.658C446.827 261.464 448.81 261.879 450.815 261.878C450.877 261.878 450.937 261.87 450.998 261.869C452.001 264.632 453.35 267.257 455.013 269.682C453.859 271.304 453.051 273.147 452.641 275.096C452.231 277.045 452.228 279.057 452.631 281.007C453.034 282.957 453.835 284.803 454.984 286.429C456.133 288.056 457.605 289.427 459.308 290.459C461.011 291.491 462.909 292.16 464.883 292.425C466.856 292.69 468.863 292.545 470.778 291.999C472.693 291.453 474.475 290.518 476.012 289.252C477.549 287.986 478.809 286.417 479.712 284.642C481.082 284.807 482.461 284.891 483.841 284.893C484.008 284.893 484.173 284.883 484.34 284.881V356.004C484.34 356.763 484.565 357.504 484.986 358.135C485.408 358.766 486.007 359.258 486.708 359.548C487.409 359.838 488.18 359.914 488.924 359.766C489.669 359.618 490.352 359.253 490.888 358.716L574.569 275.036C588.721 263.962 597.895 247.72 600.072 229.883C602.249 212.045 597.251 194.074 586.177 179.922Z" fill="#0B6623"/>
<path d="M485.432 264.699C493.433 264.699 499.92 258.212 499.92 250.211C499.92 242.21 493.433 235.723 485.432 235.723C477.431 235.723 470.944 242.21 470.944 250.211C470.944 258.212 477.431 264.699 485.432 264.699Z" fill="#7EA3CC"/>
<g clip-path="url(#clip1_3_231)">
<path d="M487.921 249.669L483.642 248.417C483.147 248.275 482.802 247.811 482.802 247.296C482.802 246.65 483.325 246.127 483.971 246.127H486.597C487.081 246.127 487.556 246.274 487.952 246.543C488.194 246.706 488.519 246.666 488.725 246.464L490.103 245.117C490.385 244.844 490.345 244.388 490.032 244.147C489.062 243.386 487.849 242.962 486.605 242.958V241.057C486.605 240.708 486.32 240.423 485.972 240.423H484.704C484.355 240.423 484.07 240.708 484.07 241.057V242.958H483.971C481.448 242.958 479.419 245.125 479.653 247.696C479.819 249.522 481.214 251.008 482.973 251.523L487.033 252.711C487.528 252.858 487.873 253.317 487.873 253.832C487.873 254.478 487.35 255.001 486.704 255.001H484.078C483.595 255.001 483.119 254.855 482.723 254.585C482.482 254.423 482.157 254.462 481.951 254.664L480.572 256.011C480.291 256.285 480.33 256.74 480.643 256.982C481.614 257.742 482.826 258.166 484.07 258.17V260.072C484.07 260.42 484.355 260.706 484.704 260.706H485.972C486.32 260.706 486.605 260.42 486.605 260.072V258.162C488.451 258.127 490.183 257.029 490.793 255.282C491.644 252.842 490.214 250.338 487.921 249.669Z" fill="#0B6623"/>
</g>
<defs>
<clipPath id="clip0_3_231">
<rect width="20.2828" height="20.2828" fill="white" transform="translate(336.115 127.419)"/>
</clipPath>
<clipPath id="clip1_3_231">
<rect width="20.2828" height="20.2828" fill="white" transform="translate(475.196 240.423)"/>
</clipPath>
</defs>
</svg>
