<svg width="110" height="43" viewBox="0 0 110 43" fill="none" xmlns="http://www.w3.org/2000/svg">
<path d="M0.84446 33V0.272726H13.9482C16.3558 0.272726 18.364 0.629616 19.9727 1.34339C21.5813 2.05717 22.7905 3.04794 23.6001 4.3157C24.4098 5.5728 24.8146 7.02166 24.8146 8.66229C24.8146 9.9407 24.5589 11.0646 24.0476 12.0341C23.5362 12.9929 22.8331 13.7812 21.9382 14.3991C21.054 15.0064 20.0419 15.4379 18.902 15.6935V16.0131C20.1484 16.0664 21.315 16.418 22.4016 17.0678C23.4989 17.7177 24.3885 18.6286 25.0703 19.8004C25.7521 20.9616 26.093 22.3466 26.093 23.9553C26.093 25.6918 25.6616 27.2418 24.7987 28.6055C23.9464 29.9585 22.6839 31.0291 21.0114 31.8175C19.3388 32.6058 17.2773 33 14.8271 33H0.84446ZM7.76385 27.343H13.4048C15.3331 27.343 16.7393 26.9755 17.6236 26.2404C18.5078 25.4947 18.9499 24.5039 18.9499 23.2681C18.9499 22.3626 18.7315 21.5636 18.2947 20.8711C17.858 20.1786 17.2347 19.6353 16.4251 19.2411C15.6261 18.8469 14.6726 18.6499 13.5646 18.6499H7.76385V27.343ZM7.76385 13.9677H12.8935C13.8416 13.9677 14.6832 13.8026 15.4183 13.4723C16.1641 13.1314 16.75 12.652 17.1761 12.0341C17.6129 11.4162 17.8313 10.6758 17.8313 9.81286C17.8313 8.63033 17.4105 7.67685 16.5689 6.95241C15.7379 6.22798 14.5554 5.86577 13.0213 5.86577H7.76385V13.9677ZM41.6537 33.4794C39.1288 33.4794 36.9555 32.968 35.1338 31.9453C33.3227 30.9119 31.9271 29.4524 30.947 27.5668C29.9669 25.6705 29.4768 23.4279 29.4768 20.8391C29.4768 18.3143 29.9669 16.0984 30.947 14.1914C31.9271 12.2844 33.3067 10.7983 35.0858 9.73295C36.8756 8.66761 38.9743 8.13494 41.382 8.13494C43.0013 8.13494 44.5088 8.39595 45.9044 8.91797C47.3106 9.42933 48.5358 10.2017 49.5798 11.2351C50.6345 12.2685 51.4548 13.5682 52.0408 15.1342C52.6267 16.6896 52.9197 18.5114 52.9197 20.5994V22.4691H32.1934V18.2504H46.5116C46.5116 17.2702 46.2986 16.402 45.8724 15.6456C45.4463 14.8892 44.855 14.2979 44.0986 13.8718C43.3529 13.435 42.4846 13.2166 41.4939 13.2166C40.4605 13.2166 39.5443 13.4563 38.7453 13.9357C37.9569 14.4045 37.339 15.0384 36.8916 15.8374C36.4442 16.6257 36.2151 17.5046 36.2045 18.4741V22.4851C36.2045 23.6996 36.4282 24.7489 36.8756 25.6332C37.3337 26.5174 37.9782 27.1992 38.8092 27.6786C39.6402 28.158 40.6256 28.3977 41.7655 28.3977C42.5219 28.3977 43.2144 28.2912 43.843 28.0781C44.4715 27.8651 45.0095 27.5455 45.4569 27.1193C45.9044 26.6932 46.2453 26.1712 46.4797 25.5533L52.7758 25.9688C52.4562 27.4815 51.801 28.8026 50.8103 29.9318C49.8302 31.0504 48.5624 31.924 47.007 32.5526C45.4623 33.1705 43.6778 33.4794 41.6537 33.4794ZM68.4204 42.7159C66.2151 42.7159 64.3241 42.4123 62.7474 41.805C61.1814 41.2085 59.9349 40.3935 59.0081 39.3601C58.0812 38.3267 57.4793 37.1655 57.2023 35.8764L63.4985 35.0295C63.6903 35.5195 63.9939 35.9776 64.4094 36.4038C64.8248 36.8299 65.3735 37.1708 66.0553 37.4265C66.7478 37.6928 67.5894 37.826 68.5802 37.826C70.061 37.826 71.2808 37.4638 72.2396 36.7393C73.2091 36.0256 73.6938 34.8271 73.6938 33.1438V28.6534H73.4062C73.1079 29.3352 72.6604 29.9798 72.0638 30.587C71.4672 31.1942 70.7002 31.6896 69.7627 32.0732C68.8252 32.4567 67.7066 32.6484 66.4069 32.6484C64.5638 32.6484 62.8859 32.2223 61.3731 31.37C59.871 30.5071 58.6725 29.1914 57.7776 27.4229C56.8934 25.6438 56.4513 23.396 56.4513 20.6793C56.4513 17.8988 56.904 15.5763 57.8096 13.712C58.7151 11.8477 59.9189 10.4521 61.4211 9.52521C62.9339 8.59837 64.5905 8.13494 66.3909 8.13494C67.7652 8.13494 68.9157 8.36932 69.8426 8.83807C70.7694 9.29616 71.5152 9.87145 72.0798 10.5639C72.6551 11.2457 73.0972 11.9169 73.4062 12.5774H73.6618V8.45454H80.4214V33.2397C80.4214 35.3278 79.9101 37.0749 78.8873 38.4812C77.8646 39.8874 76.4477 40.9421 74.6366 41.6452C72.8362 42.359 70.7641 42.7159 68.4204 42.7159ZM68.5642 27.5348C69.6615 27.5348 70.5883 27.2631 71.3447 26.7198C72.1118 26.1658 72.6977 25.3775 73.1025 24.3548C73.518 23.3214 73.7258 22.0856 73.7258 20.6474C73.7258 19.2092 73.5233 17.9627 73.1185 16.908C72.7137 15.8427 72.1278 15.017 71.3607 14.4311C70.5937 13.8452 69.6615 13.5522 68.5642 13.5522C67.4456 13.5522 66.5028 13.8558 65.7357 14.4631C64.9687 15.0597 64.3881 15.8906 63.9939 16.956C63.5997 18.0213 63.4026 19.2518 63.4026 20.6474C63.4026 22.0643 63.5997 23.2894 63.9939 24.3228C64.3987 25.3455 64.9793 26.1392 65.7357 26.7038C66.5028 27.2578 67.4456 27.5348 68.5642 27.5348ZM96.9289 33.4794C94.4466 33.4794 92.3 32.9521 90.4889 31.8974C88.6885 30.832 87.2982 29.3512 86.3181 27.4549C85.338 25.5479 84.8479 23.3374 84.8479 20.8232C84.8479 18.2876 85.338 16.0717 86.3181 14.1754C87.2982 12.2685 88.6885 10.7876 90.4889 9.73295C92.3 8.66761 94.4466 8.13494 96.9289 8.13494C99.4111 8.13494 101.552 8.66761 103.353 9.73295C105.164 10.7876 106.56 12.2685 107.54 14.1754C108.52 16.0717 109.01 18.2876 109.01 20.8232C109.01 23.3374 108.52 25.5479 107.54 27.4549C106.56 29.3512 105.164 30.832 103.353 31.8974C101.552 32.9521 99.4111 33.4794 96.9289 33.4794ZM96.9608 28.206C98.0901 28.206 99.0329 27.8864 99.7893 27.2472C100.546 26.5973 101.116 25.7131 101.499 24.5945C101.893 23.4759 102.09 22.2028 102.09 20.7752C102.09 19.3477 101.893 18.0746 101.499 16.956C101.116 15.8374 100.546 14.9531 99.7893 14.3033C99.0329 13.6534 98.0901 13.3285 96.9608 13.3285C95.8209 13.3285 94.8621 13.6534 94.0844 14.3033C93.3174 14.9531 92.7368 15.8374 92.3426 16.956C91.9591 18.0746 91.7673 19.3477 91.7673 20.7752C91.7673 22.2028 91.9591 23.4759 92.3426 24.5945C92.7368 25.7131 93.3174 26.5973 94.0844 27.2472C94.8621 27.8864 95.8209 28.206 96.9608 28.206Z" fill="#0B6623"/>
</svg>
